<svg width="433" height="304" viewBox="0 0 433 304" fill="none" xmlns="http://www.w3.org/2000/svg">
<path d="M381.178 126.932C387.298 133.356 394.126 134.381 401.662 130.007C398.499 124.934 397.747 119.417 398.589 113.605H383.909C384.56 118.712 384.385 123.468 381.178 126.932Z" fill="#FFB8B8"/>
<path d="M405.417 295.053L413.269 290.953L416.683 247.555V224.661L398.589 224.319L403.71 247.214L405.417 295.053Z" fill="#FFB8B8"/>
<path d="M382.656 295.053L374.804 290.953L371.391 247.555V224.661L389.484 224.319L384.363 247.214L382.656 295.053Z" fill="#FFB8B8"/>
<path d="M370.595 229.445L389.713 227.736L392.786 210.309L396.541 227.394L417.366 226.028C417.821 217.725 416.665 209.179 413.952 200.399L368.205 199.374L370.595 229.445Z" fill="#2F2E41"/>
<path d="M350.724 163.996L327.728 146.271C327.489 146.087 327.226 145.936 326.947 145.823L323.605 144.461C320.92 143.368 315.807 139.732 318.301 135.987C320.311 132.968 328.008 138.376 328.955 140.38C329.254 141.01 329.745 141.53 330.357 141.865L335.03 144.428C335.144 144.49 335.261 144.546 335.381 144.595L353.174 151.813C353.667 152.013 354.201 152.093 354.731 152.045C355.261 151.997 355.772 151.823 356.221 151.538L359.447 149.491C359.906 149.199 360.429 149.024 360.971 148.981C361.513 148.937 362.057 149.027 362.556 149.241C363.056 149.455 363.496 149.788 363.838 150.211C364.18 150.634 364.414 151.134 364.519 151.667L365.585 157.053C365.739 157.829 365.613 158.633 365.231 159.325C364.848 160.017 364.234 160.551 363.496 160.832L353.956 164.472C353.422 164.676 352.844 164.739 352.278 164.656C351.712 164.572 351.177 164.345 350.724 163.996V163.996Z" fill="#FFB8B8"/>
<path d="M354.996 151.082C361.363 149.373 360.695 158.276 365.552 162.654L375.103 155.107L369.571 128.298C368.087 128.723 366.721 129.487 365.583 130.531C364.445 131.574 363.564 132.868 363.011 134.311L354.996 151.082Z" fill="#878787"/>
<path d="M366.84 201.083H414.976C407.186 180.07 407.944 158.458 414.577 136.434C414.689 136.069 414.669 135.676 414.522 135.323C414.375 134.97 414.109 134.68 413.771 134.502L399.955 127.273C394.531 130.806 388.702 129.72 382.544 124.881L367.523 128.982C371.612 153.564 371.728 177.641 366.84 201.083Z" fill="#878787"/>
<path d="M378.876 303.079L358.816 303.93C357.942 303.967 357.086 303.679 356.412 303.122C355.738 302.565 355.293 301.778 355.164 300.913V300.913C355.033 300.039 355.233 299.147 355.725 298.413C356.217 297.68 356.965 297.156 357.823 296.946L361.225 296.111L374.598 288.352C376.58 290.406 379.308 292.142 382.643 293.621L382.682 299.076C382.69 300.106 382.297 301.1 381.587 301.847C380.877 302.593 379.905 303.035 378.876 303.079V303.079Z" fill="#2F2E41"/>
<path d="M409.03 302.774L429.091 303.625C429.964 303.662 430.821 303.374 431.495 302.817C432.169 302.26 432.614 301.473 432.743 300.608V300.608C432.874 299.734 432.673 298.842 432.182 298.109C431.69 297.375 430.941 296.851 430.084 296.641L426.681 295.806L413.308 288.047C411.327 290.101 408.599 291.837 405.264 293.316L405.225 298.771C405.217 299.802 405.61 300.795 406.32 301.542C407.03 302.288 408.002 302.73 409.03 302.774V302.774Z" fill="#2F2E41"/>
<path d="M389.713 119.756C395.746 119.756 400.638 114.86 400.638 108.821C400.638 102.782 395.746 97.8863 389.713 97.8863C383.68 97.8863 378.788 102.782 378.788 108.821C378.788 114.86 383.68 119.756 389.713 119.756Z" fill="#FFB8B8"/>
<path d="M406.783 197.666L403.173 204.69C402.855 205.31 402.671 205.99 402.634 206.686C402.597 207.382 402.708 208.078 402.958 208.728C403.209 209.379 403.595 209.968 404.09 210.459C404.584 210.949 405.177 211.329 405.829 211.574V211.574C406.519 211.833 407.259 211.934 407.993 211.87C408.727 211.805 409.438 211.577 410.072 211.202C410.707 210.827 411.249 210.314 411.66 209.701C412.071 209.089 412.339 208.392 412.446 207.662L413.952 197.324L419.414 171.354L419.073 158.369H408.148C411.874 168.027 410.026 182.272 406.783 197.666Z" fill="#FFB8B8"/>
<path d="M406.441 159.736H421.121L418.99 143.621C418.701 141.436 417.87 139.358 416.573 137.577C415.275 135.795 413.552 134.368 411.562 133.424L406.441 159.736Z" fill="#878787"/>
<path d="M401.327 102.798C401.546 101.337 401.454 99.8469 401.058 98.424C400.663 97.0012 399.972 95.6777 399.031 94.5399C397.167 92.3322 394.043 90.5253 388.86 91.3777C377.551 93.2375 374.29 102.661 375.398 105.031C376.506 107.401 379.902 112.894 379.902 112.894C379.902 112.894 377.409 107.456 380.114 106.349C382.82 105.242 393.288 100.882 396.942 102.846C397.976 103.366 398.855 104.151 399.487 105.121C400.12 106.091 400.485 107.211 400.544 108.368L401.327 102.798Z" fill="#2F2E41"/>
<path d="M214.346 57.2896L209.954 59.5204C204.894 49.5493 198.192 40.5032 190.128 32.7624C150.526 -5.34477 87.3346 -4.0989 49.263 35.5397C11.1913 75.1783 12.436 138.429 52.0376 176.536C59.5749 183.804 68.2098 189.836 77.6243 194.411L75.4757 198.847C60.5533 191.595 47.5691 180.892 37.596 167.624C27.6229 154.356 20.9472 138.903 18.1203 122.541C15.2935 106.18 16.3968 89.3806 21.3389 73.5306C26.2811 57.6805 34.9203 43.235 46.5428 31.3876C58.1653 19.5402 72.4374 10.631 88.1799 5.39603C103.922 0.161091 120.684 -1.2493 137.078 1.28139C153.473 3.81208 169.031 10.2112 182.466 19.9501C195.902 29.6889 206.829 42.4879 214.346 57.2896V57.2896Z" fill="#E6E6E6"/>
<path d="M65.7462 149.007C59.2856 155.733 55.7592 164.753 55.9428 174.082C56.1264 183.411 60.0049 192.285 66.7251 198.752C73.4454 205.218 82.4568 208.748 91.7771 208.564C101.097 208.38 109.963 204.498 116.424 197.772L122.475 191.471L71.7973 142.706L65.7462 149.007Z" fill="#E6E6E6"/>
<path d="M68.4019 139.128C66.9638 140.629 66.1792 142.639 66.2201 144.718C66.261 146.797 67.1241 148.775 68.6201 150.218L115.101 194.945C116.599 196.387 118.608 197.174 120.686 197.133C122.764 197.092 124.74 196.226 126.18 194.727C127.621 193.227 128.407 191.216 128.366 189.137C128.325 187.057 127.46 185.079 125.962 183.637L79.4811 138.91C77.9819 137.47 75.9734 136.685 73.8964 136.726C71.8193 136.767 69.8433 137.631 68.4019 139.128Z" fill="#535461"/>
<path d="M207.811 102.622L213.862 96.3223C220.323 89.5957 223.849 80.5759 223.666 71.2469C223.482 61.9179 219.604 53.044 212.884 46.5774C209.556 43.3754 205.631 40.8609 201.333 39.1772C197.034 37.4936 192.447 36.6738 187.832 36.7648C178.511 36.9486 169.646 40.8307 163.185 47.5572L157.134 53.8574L207.811 102.622Z" fill="#E6E6E6"/>
<path d="M153.428 50.6023C151.99 52.103 151.206 54.1133 151.246 56.1923C151.287 58.2713 152.15 60.2491 153.646 61.692L200.128 106.419C201.626 107.859 203.634 108.644 205.711 108.603C207.788 108.561 209.763 107.696 211.203 106.197C212.642 104.698 213.429 102.688 213.388 100.61C213.348 98.5308 212.485 96.5531 210.989 95.1111L164.508 50.3839C163.008 48.9445 161 48.1591 158.923 48.2001C156.846 48.241 154.87 49.105 153.428 50.6023V50.6023Z" fill="#535461"/>
<path d="M151.47 150.492V146.858C151.47 146.858 167.313 137.938 180.186 146.858V150.162L151.47 150.492Z" fill="#535461"/>
<path d="M295.706 150.492V146.858C295.706 146.858 311.549 137.938 324.421 146.858V150.162L295.706 150.492Z" fill="#535461"/>
<path d="M198.999 150.162H183.486C183.486 150.162 179.525 145.536 166.323 145.867C153.121 146.197 150.48 150.162 150.48 150.162C150.48 150.162 137.443 158.916 134.472 169.818C134.472 169.818 118.464 217.887 118.134 255.549C117.804 293.211 132.327 298.496 139.918 299.487C147.51 300.479 161.042 299.157 174.244 265.79L179.855 246.298C179.855 246.298 180.846 234.736 192.728 242.004C204.61 249.272 215.172 238.039 215.172 238.039H259.73C259.73 238.039 274.582 247.289 288.115 240.021C288.115 240.021 293.396 233.084 298.347 256.54C298.347 256.54 313.529 304.773 336.963 299.818C360.398 294.862 357.757 254.558 357.757 254.558C357.757 254.558 354.622 192.944 341.749 171.14C341.749 171.14 329.372 148.51 321.121 147.519C321.121 147.519 303.297 144.215 296.366 147.188L292.406 150.492L198.999 150.162Z" fill="#E6E6E6"/>
<path d="M163.022 211.279C178.881 211.279 191.738 198.411 191.738 182.537C191.738 166.664 178.881 153.796 163.022 153.796C147.164 153.796 134.307 166.664 134.307 182.537C134.307 198.411 147.164 211.279 163.022 211.279Z" fill="#535461"/>
<path d="M312.869 211.279C328.728 211.279 341.584 198.411 341.584 182.537C341.584 166.664 328.728 153.796 312.869 153.796C297.01 153.796 284.154 166.664 284.154 182.537C284.154 198.411 297.01 211.279 312.869 211.279Z" fill="#535461"/>
<path d="M168.026 176.128L164.197 179.518C163.873 179.804 163.456 179.961 163.024 179.961C162.592 179.961 162.175 179.804 161.851 179.518L158.015 176.128C157.828 175.963 157.677 175.76 157.574 175.532C157.47 175.304 157.416 175.057 157.415 174.807V165.481C157.416 165.01 157.603 164.559 157.936 164.226C158.269 163.893 158.72 163.707 159.191 163.707H166.864C167.334 163.706 167.786 163.892 168.119 164.224C168.452 164.556 168.639 165.007 168.64 165.477V174.8C168.638 175.053 168.582 175.302 168.476 175.531C168.37 175.76 168.217 175.963 168.026 176.128Z" fill="#E6E6E6"/>
<path d="M168.026 188.943L164.197 185.557C163.873 185.271 163.456 185.114 163.024 185.114C162.592 185.114 162.175 185.271 161.851 185.557L158.015 188.947C157.828 189.112 157.677 189.315 157.574 189.543C157.47 189.771 157.416 190.018 157.415 190.268V199.584C157.414 200.055 157.6 200.507 157.932 200.84C158.263 201.173 158.714 201.361 159.184 201.362H166.864C167.334 201.363 167.786 201.177 168.119 200.845C168.452 200.512 168.639 200.062 168.64 199.591V190.271C168.638 190.019 168.582 189.77 168.476 189.541C168.37 189.312 168.217 189.108 168.026 188.943V188.943Z" fill="#E6E6E6"/>
<path d="M156.623 187.552L160.009 183.714C160.294 183.389 160.452 182.972 160.452 182.539C160.452 182.107 160.294 181.689 160.009 181.365L156.623 177.526C156.457 177.338 156.254 177.188 156.027 177.084C155.799 176.981 155.552 176.926 155.302 176.925H145.995C145.524 176.925 145.074 177.113 144.741 177.446C144.409 177.78 144.222 178.231 144.222 178.702V186.383C144.221 186.853 144.407 187.305 144.739 187.638C145.071 187.972 145.521 188.159 145.991 188.16H155.306C155.556 188.158 155.802 188.102 156.029 187.997C156.256 187.893 156.458 187.741 156.623 187.552V187.552Z" fill="#E6E6E6"/>
<path d="M169.426 187.552L166.046 183.71C165.76 183.386 165.602 182.968 165.602 182.536C165.602 182.103 165.76 181.686 166.046 181.361L169.432 177.523C169.597 177.335 169.801 177.184 170.028 177.081C170.256 176.977 170.502 176.923 170.752 176.921H180.06C180.53 176.92 180.981 177.106 181.314 177.439C181.647 177.771 181.835 178.222 181.836 178.692V186.38C181.837 186.85 181.651 187.302 181.319 187.635C180.987 187.968 180.537 188.156 180.067 188.157H170.756C170.504 188.157 170.255 188.103 170.026 187.998C169.796 187.894 169.592 187.742 169.426 187.552V187.552Z" fill="#E6E6E6"/>
<path d="M201.969 234.736C213.453 234.736 222.763 225.417 222.763 213.922C222.763 202.428 213.453 193.109 201.969 193.109C190.485 193.109 181.176 202.428 181.176 213.922C181.176 225.417 190.485 234.736 201.969 234.736Z" fill="#535461"/>
<path d="M273.922 234.736C285.406 234.736 294.716 225.417 294.716 213.922C294.716 202.428 285.406 193.109 273.922 193.109C262.438 193.109 253.129 202.428 253.129 213.922C253.129 225.417 262.438 234.736 273.922 234.736Z" fill="#535461"/>
<path d="M201.969 227.798C209.625 227.798 215.832 221.586 215.832 213.922C215.832 206.259 209.625 200.047 201.969 200.047C194.313 200.047 188.107 206.259 188.107 213.922C188.107 221.586 194.313 227.798 201.969 227.798Z" fill="#E6E6E6"/>
<path d="M201.969 223.503C200.076 223.503 198.226 222.941 196.652 221.888C195.078 220.836 193.851 219.339 193.126 217.589C192.402 215.838 192.212 213.912 192.582 212.053C192.951 210.195 193.863 208.488 195.201 207.148C196.54 205.808 198.245 204.895 200.102 204.526C201.959 204.156 203.883 204.346 205.632 205.071C207.381 205.796 208.876 207.024 209.928 208.6C210.98 210.175 211.541 212.027 211.541 213.922C211.538 216.462 210.529 218.898 208.735 220.694C206.94 222.49 204.507 223.5 201.969 223.503V223.503ZM201.969 205.002C200.207 205.002 198.484 205.526 197.018 206.506C195.553 207.486 194.411 208.879 193.736 210.509C193.062 212.139 192.885 213.932 193.229 215.663C193.573 217.393 194.422 218.982 195.668 220.23C196.914 221.477 198.502 222.327 200.231 222.671C201.96 223.015 203.751 222.838 205.38 222.163C207.008 221.488 208.4 220.345 209.379 218.878C210.358 217.411 210.881 215.687 210.881 213.922C210.878 211.557 209.939 209.29 208.268 207.618C206.597 205.946 204.332 205.005 201.969 205.002V205.002Z" fill="#535461"/>
<path d="M273.922 227.798C281.578 227.798 287.785 221.586 287.785 213.922C287.785 206.259 281.578 200.047 273.922 200.047C266.266 200.047 260.06 206.259 260.06 213.922C260.06 221.586 266.266 227.798 273.922 227.798Z" fill="#E6E6E6"/>
<path d="M273.922 223.503C272.029 223.503 270.179 222.941 268.605 221.888C267.031 220.836 265.804 219.339 265.079 217.589C264.355 215.838 264.165 213.912 264.535 212.053C264.904 210.195 265.815 208.488 267.154 207.148C268.493 205.808 270.198 204.895 272.055 204.526C273.912 204.156 275.836 204.346 277.585 205.071C279.334 205.796 280.829 207.024 281.881 208.6C282.933 210.175 283.494 212.027 283.494 213.922C283.491 216.462 282.482 218.898 280.687 220.694C278.893 222.49 276.46 223.5 273.922 223.503ZM273.922 205.002C272.16 205.002 270.437 205.526 268.971 206.506C267.506 207.486 266.364 208.879 265.689 210.509C265.015 212.139 264.838 213.932 265.182 215.663C265.526 217.393 266.375 218.982 267.621 220.23C268.867 221.477 270.455 222.327 272.184 222.671C273.912 223.015 275.704 222.838 277.333 222.163C278.961 221.488 280.353 220.345 281.332 218.878C282.311 217.411 282.834 215.687 282.834 213.922C282.831 211.557 281.891 209.29 280.221 207.618C278.55 205.946 276.285 205.005 273.922 205.002V205.002Z" fill="#535461"/>
<path d="M238.606 222.182C241.887 222.182 244.547 219.519 244.547 216.235C244.547 212.951 241.887 210.288 238.606 210.288C235.325 210.288 232.665 212.951 232.665 216.235C232.665 219.519 235.325 222.182 238.606 222.182Z" fill="#535461"/>
<path d="M229.526 197.685C230.242 197.685 230.823 197.104 230.823 196.387C230.823 195.669 230.242 195.088 229.526 195.088C228.81 195.088 228.229 195.669 228.229 196.387C228.229 197.104 228.81 197.685 229.526 197.685Z" fill="#535461"/>
<path d="M234.385 197.685C235.101 197.685 235.682 197.104 235.682 196.387C235.682 195.669 235.101 195.088 234.385 195.088C233.668 195.088 233.087 195.669 233.087 196.387C233.087 197.104 233.668 197.685 234.385 197.685Z" fill="#535461"/>
<path d="M233.738 203.846C234.454 203.846 235.035 203.265 235.035 202.548C235.035 201.831 234.454 201.25 233.738 201.25C233.021 201.25 232.44 201.831 232.44 202.548C232.44 203.265 233.021 203.846 233.738 203.846Z" fill="#535461"/>
<path d="M238.276 204.011C239.005 204.011 239.596 203.42 239.596 202.69C239.596 201.96 239.005 201.368 238.276 201.368C237.547 201.368 236.956 201.96 236.956 202.69C236.956 203.42 237.547 204.011 238.276 204.011Z" fill="#535461"/>
<path d="M242.808 203.846C243.524 203.846 244.105 203.265 244.105 202.548C244.105 201.831 243.524 201.25 242.808 201.25C242.091 201.25 241.51 201.831 241.51 202.548C241.51 203.265 242.091 203.846 242.808 203.846Z" fill="#535461"/>
<path d="M231.794 200.929C232.51 200.929 233.091 200.348 233.091 199.631C233.091 198.914 232.51 198.332 231.794 198.332C231.077 198.332 230.496 198.914 230.496 199.631C230.496 200.348 231.077 200.929 231.794 200.929Z" fill="#535461"/>
<path d="M235.965 201.038C236.695 201.038 237.286 200.446 237.286 199.717C237.286 198.987 236.695 198.395 235.965 198.395C235.236 198.395 234.645 198.987 234.645 199.717C234.645 200.446 235.236 201.038 235.965 201.038Z" fill="#535461"/>
<path d="M240.256 201.038C240.985 201.038 241.576 200.446 241.576 199.717C241.576 198.987 240.985 198.395 240.256 198.395C239.527 198.395 238.936 198.987 238.936 199.717C238.936 200.446 239.527 201.038 240.256 201.038Z" fill="#535461"/>
<path d="M244.752 200.929C245.468 200.929 246.049 200.348 246.049 199.631C246.049 198.914 245.468 198.332 244.752 198.332C244.035 198.332 243.455 198.914 243.455 199.631C243.455 200.348 244.035 200.929 244.752 200.929Z" fill="#535461"/>
<path d="M238.276 197.734C239.005 197.734 239.596 197.143 239.596 196.413C239.596 195.683 239.005 195.091 238.276 195.091C237.547 195.091 236.956 195.683 236.956 196.413C236.956 197.143 237.547 197.734 238.276 197.734Z" fill="#535461"/>
<path d="M242.897 197.734C243.626 197.734 244.217 197.143 244.217 196.413C244.217 195.683 243.626 195.091 242.897 195.091C242.168 195.091 241.576 195.683 241.576 196.413C241.576 197.143 242.168 197.734 242.897 197.734Z" fill="#535461"/>
<path d="M246.696 197.685C247.412 197.685 247.993 197.104 247.993 196.387C247.993 195.669 247.412 195.088 246.696 195.088C245.979 195.088 245.399 195.669 245.399 196.387C245.399 197.104 245.979 197.685 246.696 197.685Z" fill="#535461"/>
<path d="M189.262 152.977C188.652 152.978 188.066 153.221 187.634 153.653C187.203 154.085 186.96 154.671 186.959 155.282V162.22C186.96 162.831 187.203 163.417 187.634 163.849C188.066 164.281 188.652 164.524 189.262 164.525H190.912C191.523 164.524 192.108 164.281 192.54 163.849C192.972 163.417 193.215 162.831 193.215 162.22V155.282C193.215 154.671 192.972 154.085 192.54 153.653C192.108 153.221 191.523 152.978 190.912 152.977H189.262Z" fill="#535461"/>
<path d="M285.639 152.977C285.029 152.978 284.443 153.221 284.012 153.653C283.58 154.085 283.337 154.671 283.336 155.282V162.22C283.337 162.831 283.58 163.417 284.012 163.849C284.443 164.281 285.029 164.524 285.639 164.525H287.29C287.9 164.524 288.485 164.281 288.917 163.849C289.349 163.417 289.592 162.831 289.592 162.22V155.282C289.592 154.671 289.349 154.085 288.917 153.653C288.485 153.221 287.9 152.978 287.29 152.977H285.639Z" fill="#535461"/>
<path d="M313.199 172.957C317.574 172.957 321.121 169.407 321.121 165.028C321.121 160.649 317.574 157.099 313.199 157.099C308.824 157.099 305.278 160.649 305.278 165.028C305.278 169.407 308.824 172.957 313.199 172.957Z" fill="#E6E6E6"/>
<path d="M296.366 189.806C300.741 189.806 304.288 186.256 304.288 181.877C304.288 177.498 300.741 173.948 296.366 173.948C291.991 173.948 288.445 177.498 288.445 181.877C288.445 186.256 291.991 189.806 296.366 189.806Z" fill="#E6E6E6"/>
<path d="M330.692 188.814C335.067 188.814 338.614 185.265 338.614 180.886C338.614 176.507 335.067 172.957 330.692 172.957C326.317 172.957 322.771 176.507 322.771 180.886C322.771 185.265 326.317 188.814 330.692 188.814Z" fill="#E6E6E6"/>
<path d="M314.519 206.324C318.894 206.324 322.441 202.774 322.441 198.395C322.441 194.016 318.894 190.466 314.519 190.466C310.145 190.466 306.598 194.016 306.598 198.395C306.598 202.774 310.145 206.324 314.519 206.324Z" fill="#E6E6E6"/>
<path d="M204.197 148.352C202.427 148.354 200.73 149.059 199.479 150.312C198.227 151.564 197.523 153.263 197.521 155.035V184.602C197.523 186.374 198.227 188.072 199.479 189.325C200.73 190.578 202.427 191.283 204.197 191.285H272.024C273.794 191.283 275.491 190.578 276.743 189.325C277.994 188.072 278.698 186.374 278.7 184.602V155.035C278.698 153.263 277.994 151.564 276.743 150.312C275.491 149.059 273.794 148.354 272.024 148.352H204.197Z" fill="#535461"/>
<path d="M318.581 168.662H307.839L313.025 159.764L318.581 168.662ZM308.988 168.001H317.39L313.044 161.042L308.988 168.001Z" fill="#535461"/>
<path d="M300.822 185.841H291.911V177.912H300.822V185.841ZM292.571 185.18H300.162V178.573H292.571V185.18Z" fill="#535461"/>
<path d="M330.692 185.841C329.713 185.841 328.756 185.55 327.942 185.006C327.128 184.461 326.493 183.688 326.118 182.782C325.744 181.877 325.646 180.88 325.837 179.919C326.028 178.958 326.499 178.075 327.192 177.382C327.884 176.689 328.766 176.217 329.727 176.025C330.687 175.834 331.682 175.932 332.587 176.307C333.492 176.682 334.265 177.318 334.809 178.133C335.353 178.947 335.643 179.906 335.643 180.886C335.642 182.199 335.12 183.459 334.192 184.388C333.263 185.317 332.005 185.84 330.692 185.841ZM330.692 176.591C329.844 176.591 329.014 176.843 328.309 177.315C327.603 177.787 327.053 178.457 326.728 179.242C326.404 180.027 326.319 180.89 326.484 181.724C326.65 182.557 327.058 183.322 327.658 183.922C328.258 184.523 329.023 184.932 329.855 185.098C330.688 185.264 331.55 185.179 332.334 184.853C333.118 184.528 333.789 183.978 334.26 183.272C334.732 182.565 334.983 181.735 334.983 180.886C334.982 179.747 334.529 178.655 333.725 177.85C332.921 177.045 331.83 176.592 330.692 176.591Z" fill="#535461"/>
<path d="M310.957 194.445L310.49 194.912L317.917 202.345L318.384 201.878L310.957 194.445Z" fill="#535461"/>
<path d="M318.087 194.439L310.496 201.708L310.952 202.186L318.543 194.917L318.087 194.439Z" fill="#535461"/>
<path d="M70.1593 76.3344C52.1381 81.3073 32.4041 85.0509 25.3331 79.2432C29.2045 72.7921 31.4375 66.4337 31.6269 60.1907C31.6696 57.3343 32.8254 54.6075 34.8479 52.5919C36.1869 51.2971 37.8031 50.3249 39.5738 49.749C41.3444 49.1731 43.2229 49.0087 45.0665 49.2683L49.7434 49.9252C49.9009 49.9473 50.0575 49.9724 50.2133 50.0005C52.4581 50.4262 54.5134 51.5449 56.0907 53.1995C57.6679 54.854 58.6879 56.9615 59.0075 59.2259C59.9928 65.9955 63.3064 71.8559 70.1593 76.3344Z" fill="#2F2E41"/>
<path d="M87.5429 140.558L94.5488 142.004C95.0839 142.115 95.5878 142.343 96.0237 142.672C96.4597 143.002 96.8168 143.425 97.0692 143.91C97.3217 144.395 97.463 144.93 97.483 145.477C97.503 146.023 97.4012 146.567 97.1849 147.069V147.069C96.9759 147.555 96.6649 147.989 96.2733 148.344C95.8816 148.698 95.4183 148.964 94.9149 149.123C94.4115 149.283 93.8797 149.332 93.3557 149.267C92.8317 149.202 92.3277 149.026 91.8779 148.749L81.1613 142.151L62.9586 99.3204L72.3866 96.5907L87.5429 140.558Z" fill="#A0616A"/>
<path d="M37.6349 196.76L32.3301 198.304L28.3148 190.004L32.398 187.874L37.6349 196.76Z" fill="#A0616A"/>
<path d="M34.9395 232.324L28.4309 230.599L29.4498 219.407L35.0511 219.752L34.9395 232.324Z" fill="#A0616A"/>
<path d="M35.6183 189.001L28.7247 193.542L2.21136 163.524C1.63626 162.873 1.21158 162.103 0.967527 161.269C0.723478 160.435 0.666063 159.557 0.799357 158.698C0.932652 157.84 1.25338 157.021 1.73874 156.3C2.22409 155.579 2.86214 154.975 3.6075 154.529L36.6366 134.775L41.6954 149.321L24.497 165.475L35.6183 189.001Z" fill="#2F2E41"/>
<path d="M41.4237 204.714C41.4064 204.737 41.3891 204.759 41.3717 204.781C40.9311 207.363 40.1574 209.719 38.4293 211.424C37.917 212.58 36.9971 213.507 35.8452 214.028C34.6933 214.549 33.3901 214.627 32.1846 214.247V214.247C31.0476 213.888 30.0703 213.146 29.4199 212.146C28.7695 211.146 28.4863 209.951 28.6188 208.766L29.907 197.241C32.997 196.53 35.3537 194.771 36.5466 191.349L39.5497 193.396C40.4384 193.997 41.1954 194.773 41.7745 195.677C42.3537 196.58 42.7428 197.593 42.9182 198.652C43.0936 199.711 43.0515 200.795 42.7946 201.837C42.5376 202.879 42.0712 203.858 41.4237 204.714V204.714Z" fill="#2F2E41"/>
<path d="M44.6917 73.8664C50.5516 73.8664 55.302 69.1116 55.302 63.2462C55.302 57.3809 50.5516 52.6261 44.6917 52.6261C38.8318 52.6261 34.0815 57.3809 34.0815 63.2462C34.0815 69.1116 38.8318 73.8664 44.6917 73.8664Z" fill="#A0616A"/>
<path d="M53.8802 80.2236L37.1532 94.0898L35.8504 88.3821L38.77 83.9275C39.5803 79.5569 39.0572 74.7373 37.6649 69.6251L48.5781 69.6351C49.0492 73.7664 50.6561 77.3704 53.8802 80.2236Z" fill="#A0616A"/>
<path d="M58.5895 116.596L36.0079 123.481L34.2511 115.442C30.0192 109.755 28.1796 104.563 30.9483 100.328L29.555 93.9529C33.5517 90.8033 36.6945 87.5806 38.4203 84.237L52.3139 78.803L62.5276 79.432L65.5437 89.5487L58.5895 116.596Z" fill="#878787"/>
<path d="M74.6322 97.7221C69.8186 97.6711 65.1078 99.1158 61.1491 101.857L62.5276 79.432C63.9268 79.6191 65.2533 80.1675 66.3765 81.0234C67.4998 81.8793 68.381 83.0131 68.9336 84.3133L74.6322 97.7221Z" fill="#878787"/>
<path d="M35.5476 222.431L28.3803 220.665L29.4353 159.708L39.0596 149.158L36.9052 135.784L35.5112 120.802L59.0203 114.967C66.9665 129.409 71.7694 142.539 64.7586 150.741L35.5476 222.431Z" fill="#2F2E41"/>
<path d="M33.9014 243.012C33.8693 243.025 33.8371 243.037 33.8049 243.05C31.7237 245.469 29.437 247.441 26.5621 248.134C25.301 249.02 23.7584 249.409 22.2288 249.228C20.6991 249.047 19.2896 248.309 18.2694 247.154V247.154C17.3072 246.064 16.7531 244.674 16.7017 243.221C16.6504 241.768 17.105 240.342 17.9879 239.188L26.5688 227.965C30.2415 229.166 33.8066 228.812 37.2006 225.989L39.0507 230.016C39.6013 231.203 39.9045 232.489 39.9419 233.797C39.9792 235.105 39.75 236.406 39.2681 237.623C38.7863 238.839 38.0619 239.944 37.1392 240.87C36.2165 241.797 35.1148 242.526 33.9014 243.012V243.012Z" fill="#2F2E41"/>
<path d="M7.71903 147.89L1.428 153.282C0.905944 153.729 0.505179 154.301 0.262857 154.945C0.0205347 155.588 -0.0555049 156.283 0.0417854 156.964C0.139076 157.645 0.406549 158.29 0.819409 158.84C1.23227 159.39 1.77715 159.827 2.40356 160.11V160.11C3.34655 160.536 4.41597 160.588 5.39564 160.255C6.3753 159.922 7.19213 159.229 7.681 158.316L12.2303 149.823L33.0932 111.715L25.2467 110.239L7.71903 147.89Z" fill="#A0616A"/>
<path d="M34.3503 112.786C30.2753 111.555 26.4583 110.83 23.4979 111.787C24.1185 104.1 25.3974 97.2341 29.555 93.9529L35.4653 94.6479L34.3503 112.786Z" fill="#878787"/>
<path d="M56.5364 60.7836L33.8431 59.386L34.1223 54.8431C42.0441 49.4966 49.6085 49.9625 56.8157 56.2407L56.5364 60.7836Z" fill="#2F2E41"/>
</svg>
